<svg xmlns="http://www.w3.org/2000/svg" viewBox="0 0 781.09 602.5"><defs><style>.cls-1,.cls-10,.cls-11,.cls-12,.cls-14,.cls-2,.cls-3,.cls-4,.cls-5,.cls-6,.cls-7,.cls-8{fill:none;}.cls-1,.cls-2{stroke:#009245;}.cls-1,.cls-10,.cls-11,.cls-12,.cls-13,.cls-14,.cls-2,.cls-3,.cls-4,.cls-5,.cls-6,.cls-7,.cls-8{stroke-miterlimit:10;}.cls-1,.cls-4{stroke-width:9px;}.cls-2,.cls-6,.cls-7{stroke-width:5px;}.cls-10,.cls-12,.cls-13,.cls-3,.cls-4,.cls-5,.cls-6{stroke:#000;}.cls-3{stroke-width:7px;}.cls-5,.cls-8{stroke-width:6px;}.cls-7,.cls-8{stroke:#8b4513;}.cls-9{fill:#8b4513;}.cls-10,.cls-11,.cls-13{stroke-width:3px;}.cls-11{stroke:#666;}.cls-12{stroke-width:4px;}.cls-14{stroke:#4d4d4d;stroke-width:2px;}</style></defs><title>desenho-1</title><g id="Layer_4" data-name="Layer 4"><path class="cls-1" d="M412.25,297.16" transform="translate(-147.04 -215.15)"/><path class="cls-1" d="M388.5,331.5A98.38,98.38,0,0,0,361,304.45a99.86,99.86,0,0,0-51.5-15.95,34.91,34.91,0,0,1,40-54c13.7,11.87,20.29,26.25,23,42,12.63,19.12,25.88,27.48,40,21" transform="translate(-147.04 -215.15)"/><path class="cls-2" d="M311.5,281.5q49-4.5,20-37" transform="translate(-147.04 -215.15)"/><path class="cls-2" d="M833.5,336.5c-35.94-8.5-26.55-20.86-8-34" transform="translate(-147.04 -215.15)"/><path class="cls-3" d="M418,265.1q47.75-24.41,95.5.4" transform="translate(-147.04 -215.15)"/><path class="cls-3" d="M609.5,278.71C639.65,258.94,672,254.38,711,297" transform="translate(-147.04 -215.15)"/><path class="cls-4" d="M924.5,508.32c-8.64,11.76-36,16.73-70.21,19.18C830.92,525,795.27,505.94,750,474" transform="translate(-147.04 -215.15)"/><path class="cls-4" d="M354.94,443l-43.44,5.5c-61.2-34.56-107.2,0-121,181" transform="translate(-147.04 -215.15)"/><path class="cls-4" d="M223,474.5q-36.75-2-73.5,22" transform="translate(-147.04 -215.15)"/><path class="cls-4" d="M355.46,447a185.06,185.06,0,0,0-20.71,13c-47,34.33-65.45,86.51-38.9,166.84A545.05,545.05,0,0,0,411.5,758.5a50.46,50.46,0,0,1-15,36" transform="translate(-147.04 -215.15)"/><path class="cls-4" d="M365,760c76.16,20.84,147.38,34.45,209,34" transform="translate(-147.04 -215.15)"/><path class="cls-5" d="M476.5,815.5c-11.75-11.34-15.16-22.1-11.37-32.36" transform="translate(-147.04 -215.15)"/><path class="cls-5" d="M430.5,805.5q13.81-1.18,27.62-22.36l7.63,17.75" transform="translate(-147.04 -215.15)"/><circle class="cls-6" cx="209.96" cy="544.85" r="8.5"/><ellipse class="cls-6" cx="444.96" cy="579.35" rx="17.5" ry="11"/><ellipse class="cls-7" cx="122.96" cy="458.35" rx="22.5" ry="15"/><ellipse class="cls-7" cx="686.96" cy="349.35" rx="12.5" ry="6"/><circle class="cls-7" cx="626.96" cy="530.85" r="18.5"/><path class="cls-4" d="M543.5,815.5c-16.12-57.86,40.89-54.75,136.13-81.84,55.13-35.7,95.81-72.4,109-111,5.65-54,6.06-105.76-38.63-137.24" transform="translate(-147.04 -215.15)"/><path class="cls-1" d="M738.5,514.5c21.5-36.44,14.52-90.5,2-148,14.33-16.89,53.06-17.66,100-13,13.52-13.7,15.75-34.27,6.25-48.7-7.4-11.22-21-17.4-35.25-16.3a92.83,92.83,0,0,1-38.64,32.2,91.76,91.76,0,0,1-37.36,7.8c-2.26-58.07-37.4-81.92-80-98-68.51-15.4-130.56-15.54-183,7-52.56-6.41-62.85,31.42-60,83-69.16,46.63-66.61,132.94-41,232,31.91,48.41,68.92,72.44,110,77,50.19,13.93,94.92,14.07,134,0,35.26-16.53,64.12-33.8,76-53" transform="translate(-147.04 -215.15)"/><path class="cls-4" d="M411.5,758.5" transform="translate(-147.04 -215.15)"/><path class="cls-5" d="M335.5,466.5c-32.28,68.33-30.46,114.76-5,146,34.15,76.66,105.73,96.22,187,101,69.94-1.83,130.55-10.83,174-33,49.76-33.59,97.27-67.17,99.76-100.5" transform="translate(-147.04 -215.15)"/><path class="cls-8" d="M223,590c-1-52.61,13.59-97,61-124" transform="translate(-147.04 -215.15)"/><line class="cls-5" x1="150.96" y1="240.85" x2="163.96" y2="231.85"/><path class="cls-7" d="M846,608c-13.19,42.15-13.1,82.17,7,119" transform="translate(-147.04 -215.15)"/><path class="cls-9" d="M255.33,657.79a9.06,9.06,0,0,0-.87-11.84c-3.84-4.11-10-4.08-15.09-3.16-1.9.34-1.09,3.23.8,2.89,3.5-.63,7.56-.86,10.69,1.16,2.76,1.77,4.59,5.93,2.35,8.83-1.17,1.5.94,3.64,2.12,2.12Z" transform="translate(-147.04 -215.15)"/><path class="cls-9" d="M253.91,661.79a20.85,20.85,0,0,0-8.54-1.81c-3.55-.17-11.49-1.09-9.93-6.63a1.51,1.51,0,0,0-2.9-.8c-1,3.68,1,6.76,4.18,8.61,4.85,2.82,10.72.78,15.67,3.22,1.73.85,3.25-1.74,1.52-2.59Z" transform="translate(-147.04 -215.15)"/><path class="cls-9" d="M288.49,687.36c1.36-1.31,5.08-.17,6.32,1a12.74,12.74,0,0,1,2.06,2.72c1,1.61,1.79,3.35,2.92,4.9a12,12,0,0,0,2.43,2.6c1.08.79,2.68.9,3.65,1.63,2.7,2,.83,6,3,8.52,1.84,2.1,4,2,4.59,5.12.65,3.37-1.23,5.66-3.81,7.69-1.51,1.19.62,3.3,2.13,2.12,3.31-2.61,6.51-7.23,4.86-11.65-1.23-3.31-5.18-4.25-6.18-7.84-.61-2.18.66-3.93-1.38-5.75-.8-.72-1.49-.68-2.41-1.1-2.2-1-3.58-1.81-5-3.89s-2.43-4.78-4.3-6.72c-3-3.12-7.6-4.71-11-1.43-1.39,1.34.73,3.46,2.12,2.12Z" transform="translate(-147.04 -215.15)"/><path class="cls-9" d="M282.05,719.64c4.32,1.86,9.43,4,14,1.69a7.83,7.83,0,0,0,4.48-8.75l-1.45,1.9a10.61,10.61,0,0,0,10.56-9.08c.3-1.89-2.59-2.7-2.9-.79a7.79,7.79,0,0,1-7.66,6.87,1.52,1.52,0,0,0-1.44,1.9l-2.48,5a6.77,6.77,0,0,1-5.2.67,23.15,23.15,0,0,1-6.39-2.05c-1.76-.76-3.29,1.83-1.52,2.59Z" transform="translate(-147.04 -215.15)"/><path class="cls-9" d="M267.53,708a13.29,13.29,0,0,0-10-6.47c-1.09-.11-2.27.23-3.32.1-2.79-.35-3.07-2.77-2.89-5.11a11.78,11.78,0,0,1,4.7-8.44c1.51-1.21-.62-3.32-2.12-2.12-4.3,3.46-7.13,9.89-5.06,15.36a4.82,4.82,0,0,0,3.34,3.27c2.14.51,4.34-.38,6.55.2a10.33,10.33,0,0,1,6.18,4.72c1,1.63,3.62.13,2.59-1.51Z" transform="translate(-147.04 -215.15)"/><path class="cls-9" d="M247.72,679.16a7.65,7.65,0,0,0-8.08-1.39,7.13,7.13,0,0,0-3.34,2.77c-.81,1.27-1.22,3.68-2.91,4-1.9.31-1.09,3.2.8,2.9,2.3-.38,3.18-2.39,4.14-4.28,1.38-2.72,4.73-4.07,7.27-1.83,1.44,1.28,3.57-.84,2.12-2.12Z" transform="translate(-147.04 -215.15)"/><path class="cls-9" d="M245.85,671.6a21.34,21.34,0,0,0-13.71-3.93c-6,.31-12.71,3.71-18-.32-1.54-1.16-3,1.44-1.52,2.59,3.72,2.8,7.9,2.56,12.31,1.87,7.06-1.12,13.23-2,19.45,2.38,1.58,1.13,3.08-1.47,1.52-2.59Z" transform="translate(-147.04 -215.15)"/><path class="cls-9" d="M276.87,661c4.26-2.52,5.33-8.18,3.09-12.46-2.91-5.54-9.73-6.74-15.38-5.93-1.9.27-1.09,3.16.8,2.89,4.07-.58,9.23.14,11.63,3.91,1.84,2.89,1.43,7.18-1.65,9a1.5,1.5,0,0,0,1.51,2.59Z" transform="translate(-147.04 -215.15)"/><path class="cls-9" d="M285.78,663.92a27.33,27.33,0,0,1,13.37,10.21c1.1,1.57,3.7.07,2.6-1.52A30.82,30.82,0,0,0,286.58,661c-1.83-.65-2.61,2.25-.8,2.89Z" transform="translate(-147.04 -215.15)"/><path class="cls-9" d="M260.8,566.61a51.53,51.53,0,0,1-12.86-8.54c-1.43-1.3-3.55.82-2.12,2.12a53.62,53.62,0,0,0,13.47,9c1.74.81,3.26-1.77,1.51-2.59Z" transform="translate(-147.04 -215.15)"/><path class="cls-9" d="M255,556.54a37.81,37.81,0,0,1,10.51.55,1.53,1.53,0,0,0,1.9-1.45l.09-3.65c.05-1.93-2.95-1.93-3,0l-.09,3.65,1.89-1.45a40.78,40.78,0,0,0-11.3-.65c-1.91.16-1.92,3.17,0,3Z" transform="translate(-147.04 -215.15)"/><path class="cls-9" d="M264.45,541.15c-1.4-2.7-4.81-9.2,1.19-10.39A1.51,1.51,0,0,0,266,528c-3-1.58.77-5.89,1.53-7.75.68-1.7.34-2.83.36-4.52.06-3.49,2.58-4.75,5.18-6.87l8.13-6.63c1.5-1.22-.63-3.33-2.12-2.12-3.9,3.19-8.18,6.18-11.83,9.64-2.34,2.22-2.47,3.11-2.43,6.1,0,4.09-3.08,6.58-2.93,10.44a4.62,4.62,0,0,0,2.59,4.3l.36-2.74c-7.58,1.5-5.54,9.87-3,14.8.89,1.71,3.48.2,2.59-1.52Z" transform="translate(-147.04 -215.15)"/><path class="cls-9" d="M754.43,749.41c-3.81-.82-7.62-1.57-11.46-2.23-2.08-.36-5-1.38-7.11-.73a3.33,3.33,0,0,0-2.37,2.61,4.23,4.23,0,0,0,.4,2.42c.12.29,2.24,4.2,2,4.13-1.87-.48-2.66,2.42-.79,2.9,3.08.79,4.3-2.73,3.38-5.21-.31-.82-1.39-1.64-1.52-2.46-.46-2.83,3.74-1,5.24-.77,3.84.66,7.66,1.42,11.46,2.24,1.88.4,2.69-2.49.8-2.9Z" transform="translate(-147.04 -215.15)"/><path class="cls-9" d="M734.94,771.94l-4,4a1.5,1.5,0,0,0,2.12,2.12l4-4a1.5,1.5,0,0,0-2.12-2.12Z" transform="translate(-147.04 -215.15)"/><path class="cls-9" d="M718.89,780.9l-4,5a1.55,1.55,0,0,0,0,2.12,1.51,1.51,0,0,0,2.12,0l4-5a1.55,1.55,0,0,0,0-2.12,1.51,1.51,0,0,0-2.12,0Z" transform="translate(-147.04 -215.15)"/><path class="cls-9" d="M748.81,783.4l2-1a1.5,1.5,0,0,0-1.52-2.59l-2,1a1.5,1.5,0,1,0,1.51,2.59Z" transform="translate(-147.04 -215.15)"/><path class="cls-9" d="M752.75,778.29a6.52,6.52,0,0,0,2.67-6.68c-.36-1.9-3.25-1.1-2.89.79a3.39,3.39,0,0,1-1.29,3.3,1.54,1.54,0,0,0-.54,2,1.51,1.51,0,0,0,2,.54Z" transform="translate(-147.04 -215.15)"/><path class="cls-9" d="M765,768.5h1a1.5,1.5,0,0,0,0-3h-1a1.5,1.5,0,0,0,0,3Z" transform="translate(-147.04 -215.15)"/><path class="cls-9" d="M773.28,767.24a9.12,9.12,0,0,1,3.63,7.73c-.06,1.93,2.94,1.93,3,0a12.25,12.25,0,0,0-5.12-10.32c-1.55-1.15-3,1.45-1.51,2.59Z" transform="translate(-147.04 -215.15)"/><path class="cls-9" d="M785.53,768.58a17.54,17.54,0,0,1,7.82,6.86,1.51,1.51,0,0,0,2.35.3l2.36-2.68c1.27-1.44-.84-3.57-2.12-2.12l-2.36,2.68,2.36.3A20.35,20.35,0,0,0,787,766c-1.74-.8-3.26,1.79-1.51,2.59Z" transform="translate(-147.04 -215.15)"/><path class="cls-9" d="M793.71,764l15.79,3.87c1.87.46,2.67-2.44.79-2.9l-15.78-3.87c-1.88-.46-2.68,2.44-.8,2.9Z" transform="translate(-147.04 -215.15)"/><path class="cls-9" d="M796.9,755c2-3.34,9-.41,12.16-1.27a7.44,7.44,0,0,0,3-1.9c1.71-1.32-.69-.76,1.91-1.13,2.34-.32,4.59,2.69,6,4.22s3.46-.72,2.12-2.12c-2-2.09-5.61-5.95-8.81-6.08s-3.24,3.6-6,4.23c-4.5,1-10.06-2.6-13.09,2.54A1.5,1.5,0,0,0,796.9,755Z" transform="translate(-147.04 -215.15)"/><path class="cls-9" d="M832.42,752.39a10.7,10.7,0,0,0-8.12-12.26c-1.89-.4-2.69,2.49-.8,2.9a7.69,7.69,0,0,1,6,8.57c-.32,1.88,2.57,2.7,2.89.79Z" transform="translate(-147.04 -215.15)"/><path class="cls-9" d="M820.45,739.4A67.75,67.75,0,0,0,806,736.59c-1.92-.16-1.91,2.84,0,3a64.18,64.18,0,0,1,13.66,2.7c1.85.58,2.64-2.32.8-2.89Z" transform="translate(-147.04 -215.15)"/><path class="cls-9" d="M791.45,731.58l5.86-2.35c1.77-.71,1-3.61-.79-2.89l-5.86,2.35c-1.77.71-1,3.61.79,2.89Z" transform="translate(-147.04 -215.15)"/><path class="cls-9" d="M788,730a10.25,10.25,0,0,0-1.22-14.56c-1.5-1.18-3.64.93-2.12,2.12a7.28,7.28,0,0,1,1.22,10.32c-1.25,1.46.86,3.59,2.12,2.12Z" transform="translate(-147.04 -215.15)"/><path class="cls-9" d="M779.91,722.39c-4.66-3-8.09-16.88-2.16-20.17,1.69-.94.18-3.53-1.51-2.59-8.15,4.52-4.51,21.11,2.16,25.35,1.63,1,3.14-1.56,1.51-2.59Z" transform="translate(-147.04 -215.15)"/><path class="cls-9" d="M766.33,726.19a13.07,13.07,0,0,0-12.79-1.81l1.84,1.85c2.25-10.85-12-16.22-17.1-6.15-.87,1.72,1.72,3.24,2.59,1.51,3.45-6.86,13.21-3.84,11.62,3.84-.21,1,.69,2.28,1.84,1.85a10.36,10.36,0,0,1,10.48,1.5c1.55,1.16,3.05-1.45,1.52-2.59Z" transform="translate(-147.04 -215.15)"/><path class="cls-9" d="M753.22,739.39A25.72,25.72,0,0,0,737,734.3c-1.93.05-1.93,3.05,0,3A23,23,0,0,1,751.71,742c1.55,1.15,3-1.45,1.51-2.59Z" transform="translate(-147.04 -215.15)"/><path class="cls-9" d="M800.81,713.79a12.6,12.6,0,0,0,13.73-4.87c1.14-1.56-1.46-3.06-2.59-1.51a9.49,9.49,0,0,1-10.34,3.48,1.51,1.51,0,0,0-.8,2.9Z" transform="translate(-147.04 -215.15)"/><path class="cls-9" d="M819,549.43a7.09,7.09,0,0,1-10.71-3.8,1.5,1.5,0,0,0-2.89.8c1.69,6.27,9.74,9.35,15.12,5.59,1.57-1.1.07-3.7-1.52-2.59Z" transform="translate(-147.04 -215.15)"/><path class="cls-9" d="M820.41,553.5a4.87,4.87,0,0,1,5.22,2.3,1.5,1.5,0,0,0,2.59-1.52,7.94,7.94,0,0,0-8.6-3.67c-1.89.42-1.09,3.31.79,2.89Z" transform="translate(-147.04 -215.15)"/><path class="cls-9" d="M816.24,535c-1.78,2.25-3.75,6-1.08,8.38,1.9,1.71,5.06,1.48,6-1.07.68-1.8-2.22-2.59-2.9-.79.07-.19,0,0-.27,0a1.47,1.47,0,0,1-1-.54c-.7-1.17.69-3,1.36-3.86,1.18-1.5-.93-3.64-2.12-2.12Z" transform="translate(-147.04 -215.15)"/><path class="cls-9" d="M832.13,549.13a2.69,2.69,0,0,1,4.29,1.29c.47,1.88,3.36,1.08,2.89-.79-1-4-6.37-5.44-9.3-2.62-1.39,1.34.73,3.46,2.12,2.12Z" transform="translate(-147.04 -215.15)"/><path class="cls-9" d="M847.72,564.5c4.37,2.39,10.12-2.07,8.75-6.91a1.5,1.5,0,0,0-2.89.8c.64,2.25-2.25,4.67-4.34,3.52-1.7-.93-3.21,1.66-1.52,2.59Z" transform="translate(-147.04 -215.15)"/><path class="cls-9" d="M847.58,557.57l.19-.05-1.69-.69.06-1.05,1.06-.44-.24,0,1.07.44c.31.34.11.08.4-.35s.56-.9.9-1.32a10,10,0,0,1,2.22-2A10.35,10.35,0,0,1,857,550.3c1.93-.08,1.94-3.08,0-3-4.66.18-9.4,2.79-11.43,7.13-.66,1.4-.61,3.72,1.4,3.89a2,2,0,0,0,1.71-3,1.55,1.55,0,0,0-1.69-.69l-.2,0c-1.87.46-1.08,3.35.8,2.9Z" transform="translate(-147.04 -215.15)"/><path class="cls-9" d="M827.53,585.7a4.61,4.61,0,0,1,3.06,4.91c-.3,1.89,2.59,2.7,2.89.8a7.68,7.68,0,0,0-5.15-8.61c-1.84-.61-2.63,2.29-.8,2.9Z" transform="translate(-147.04 -215.15)"/><path class="cls-9" d="M805.35,595.15A24.93,24.93,0,0,0,818,599.67c1.92.16,1.91-2.84,0-3a22.12,22.12,0,0,1-11.13-4.11c-1.57-1.12-3.08,1.48-1.51,2.59Z" transform="translate(-147.04 -215.15)"/><path class="cls-9" d="M811.59,574.5a5,5,0,0,1-3.85-.77c-1.62-1.06-3.12,1.53-1.51,2.59a8,8,0,0,0,6.16,1.08c1.88-.41,1.09-3.3-.8-2.9Z" transform="translate(-147.04 -215.15)"/><path class="cls-4" d="M924.5,533.5q-52.5,61.5-49,175" transform="translate(-147.04 -215.15)"/><path class="cls-10" d="M417.5,446.5q-4-3.67,4.9-7.36a69.16,69.16,0,0,1,8.1-2.64" transform="translate(-147.04 -215.15)"/><path class="cls-10" d="M513.5,516.5c-30.39,1.65-58.74-18.14-90-75,53.72-3.1,103.74-2.82,140,10,43.55,13.25,81.62,20.41,103,9C627.09,496.51,581.64,523.47,513.5,516.5Z" transform="translate(-147.04 -215.15)"/><path class="cls-10" d="M465.75,496.5c18.14-9.17,40.17-14.64,71.75-11,25.3,0,46.06,5.7,59.55,20.62" transform="translate(-147.04 -215.15)"/><path class="cls-10" d="M440.5,501.5c100.19,83.66,128.5,31,174,11" transform="translate(-147.04 -215.15)"/><path class="cls-10" d="M638.5,409.5c41.76,10.06,51,34,46,64" transform="translate(-147.04 -215.15)"/><path class="cls-10" d="M456.5,383.5c-28.92,10.58-53.14,23.67-60,46" transform="translate(-147.04 -215.15)"/><path class="cls-10" d="M597.5,395.5c-3.77-11.51-7.79-14.72-12-12-35,19.74-64.75,13.29-91-10-5.6,3.54-6.4,6.9,0,10" transform="translate(-147.04 -215.15)"/><path class="cls-10" d="M396.5,406.5" transform="translate(-147.04 -215.15)"/><path class="cls-11" d="M502.5,409.5q-2.5,10,5,20" transform="translate(-147.04 -215.15)"/><path class="cls-11" d="M560,436.61c4.49-7.42,6-15.13,4-23.19" transform="translate(-147.04 -215.15)"/><path class="cls-10" d="M476.5,384.5c-8.29-17.47-1.82-29.19,25-33,7.37-14.47,23.52-20,50-15,24.72,2.68,40.59,9.24,40,23A27.81,27.81,0,0,1,617,371.4c6.54,9.78,4,20.37,3.54,22.1l-12,8" transform="translate(-147.04 -215.15)"/><path class="cls-10" d="M130.5,319.5" transform="translate(-147.04 -215.15)"/><path class="cls-10" d="M105.5,358.5" transform="translate(-147.04 -215.15)"/><path class="cls-12" d="M507.5,340.5c-28-.26-53.31-2.45-67-13A38,38,0,0,1,453.14,313c13.83-9.28,29.11-5.7,31.86-5,12.66,2.2,22.22,10.24,24.06,20.09A21.64,21.64,0,0,1,507.5,340.5Z" transform="translate(-147.04 -215.15)"/><path class="cls-10" d="M610,348q5.68,1.81,11.36,3.05A113.65,113.65,0,0,0,681,348a44.9,44.9,0,0,0-36.5-25.5,30.65,30.65,0,0,0-20.83,4.25C612.32,333.94,610.28,346.14,610,348Z" transform="translate(-147.04 -215.15)"/><path class="cls-10" d="M645.5,334.5a19.09,19.09,0,0,0-14.93,3.29,18.88,18.88,0,0,0-7.07,11.71l38,2a16,16,0,0,0-1.8-8.31C655.58,335.52,646.39,334.58,645.5,334.5Z" transform="translate(-147.04 -215.15)"/><path class="cls-10" d="M458.87,335.81c.31-1.47,2.75-12.52,12.45-16.74a19.32,19.32,0,0,1,8.18-1.57,18.16,18.16,0,0,1,8.33,4.35c6.69,6.24,5.81,15.45,5.67,16.65A87.62,87.62,0,0,1,458.87,335.81Z" transform="translate(-147.04 -215.15)"/><path class="cls-10" d="M624.5,353.5" transform="translate(-147.04 -215.15)"/><path class="cls-10" d="M482.5,328.5" transform="translate(-147.04 -215.15)"/><path class="cls-10" d="M472.5,335.5" transform="translate(-147.04 -215.15)"/><line class="cls-10" x1="319.46" y1="121.35" x2="341.14" y2="124.75"/><path class="cls-10" d="M640.5,348.5" transform="translate(-147.04 -215.15)"/><path class="cls-13" d="M633.5,349.11c-1.1-3,3.1-9.06,9-9.61,7.22-.68,12.25,7.38,11,10.44C651.73,354.28,635.25,353.86,633.5,349.11Z" transform="translate(-147.04 -215.15)"/><path class="cls-10" d="M478.5,329.5" transform="translate(-147.04 -215.15)"/><path class="cls-10" d="M476.5,334.5" transform="translate(-147.04 -215.15)"/><path class="cls-13" d="M466.5,336.5A10.29,10.29,0,1,1,487,338Z" transform="translate(-147.04 -215.15)"/><path class="cls-13" d="M476.5,331.5" transform="translate(-147.04 -215.15)"/><line class="cls-13" x1="332.46" y1="117.35" x2="332.46" y2="116.35"/><path d="M441.5,465.72c2.92-2.57,8.19,2,11.37,2.56a12.52,12.52,0,0,0,7-1.12c9.14-3.69,16.84-6.85,26.93-4.92,8,1.53,14.9,6.39,23.14,7.06,9.57.78,18.67-1.32,28.24.78,8,1.76,15.78,4.64,24,5.39,8.46.78,17.08-1.47,25.49.06,4.24.77,7.25,2.92,10.78,5.12a22.89,22.89,0,0,0,9.56,3.14c8.91,1.14,18,1.18,27,1.72,1.93.11,1.92-2.89,0-3l-14.86-.89c-4.85-.29-10.11-.1-14.84-1.31s-7.76-4.5-12-6.27a27.4,27.4,0,0,0-8.29-1.85c-9.31-.77-18.41,1.3-27.7-.44-8.36-1.57-16.36-4.72-24.85-5.69-9.72-1.12-19.54,2-29.05-1.14-8.28-2.71-15.32-6.5-24.3-6.31A41.35,41.35,0,0,0,469,460.1c-4.12,1.15-7.66,3.65-11.71,4.85-6.16,1.84-12.38-6.2-17.88-1.35-1.45,1.28.68,3.39,2.12,2.12Z" transform="translate(-147.04 -215.15)"/><path d="M477,337.5a1.5,1.5,0,0,0,0-3,1.5,1.5,0,0,0,0,3Z" transform="translate(-147.04 -215.15)"/><path class="cls-14" d="M528,332c5.06-19.72,8.26-38.64-6-50" transform="translate(-147.04 -215.15)"/><line class="cls-14" x1="439.42" y1="132.46" x2="438.96" y2="108.85"/><path class="cls-14" d="M610,320q8.22-17.5,29-17" transform="translate(-147.04 -215.15)"/><path class="cls-14" d="M513,315c-7.24-10.46-16.14-20.28-33-27" transform="translate(-147.04 -215.15)"/><path class="cls-14" d="M440,307c-1.69-3.68.27-7.05,7-10" transform="translate(-147.04 -215.15)"/></g></svg>